<mxfile host="65bd71144e" modified="2021-01-05T20:02:56.270Z" agent="5.0 (Macintosh; Intel Mac OS X 10_15_7) AppleWebKit/537.36 (KHTML, like Gecko) Code/1.52.1 Chrome/83.0.4103.122 Electron/9.3.5 Safari/537.36" etag="Zp1P-BWYV64GpQHmc3hu" version="13.10.0" type="embed" pages="2">
    <diagram id="nsphGuRlY0cIUSC-VvNs" name="require auth">
        <mxGraphModel dx="479" dy="548" grid="1" gridSize="10" guides="1" tooltips="1" connect="1" arrows="1" fold="1" page="1" pageScale="1" pageWidth="850" pageHeight="1100" math="0" shadow="0">
            <root>
                <mxCell id="0"/>
                <mxCell id="1" parent="0"/>
                <mxCell id="2" value="Any Service" style="rounded=0;whiteSpace=wrap;html=1;fillColor=#f5f5f5;strokeColor=#666666;fontColor=#333333;fontStyle=1;fontSize=19;" parent="1" vertex="1">
                    <mxGeometry x="630" y="240" width="600" height="35" as="geometry"/>
                </mxCell>
                <mxCell id="3" value="" style="rounded=0;whiteSpace=wrap;html=1;fillColor=#f5f5f5;strokeColor=#666666;fontColor=#333333;fontStyle=1;fontSize=19;" parent="1" vertex="1">
                    <mxGeometry x="630" y="275" width="600" height="145" as="geometry"/>
                </mxCell>
                <mxCell id="4" style="edgeStyle=orthogonalEdgeStyle;rounded=0;orthogonalLoop=1;jettySize=auto;html=1;exitX=1;exitY=0.5;exitDx=0;exitDy=0;fontSize=18;fillColor=#60a917;strokeColor=#5BF000;jumpSize=6;strokeWidth=3;" parent="1" source="5" target="11" edge="1">
                    <mxGeometry relative="1" as="geometry"/>
                </mxCell>
                <mxCell id="5" value="Headers" style="rounded=0;whiteSpace=wrap;html=1;fontSize=15;fillColor=#dae8fc;strokeColor=#6c8ebf;fontColor=#000000;" parent="1" vertex="1">
                    <mxGeometry x="390" y="335" width="200" height="25" as="geometry"/>
                </mxCell>
                <mxCell id="6" value="&lt;b&gt;Incoming Request&lt;/b&gt;" style="rounded=0;whiteSpace=wrap;html=1;fontSize=15;fillColor=#dae8fc;strokeColor=#6c8ebf;fontColor=#000000;" parent="1" vertex="1">
                    <mxGeometry x="390" y="310" width="200" height="25" as="geometry"/>
                </mxCell>
                <mxCell id="7" value="Cookie" style="rounded=0;whiteSpace=wrap;html=1;fontSize=15;fillColor=#dae8fc;strokeColor=#6c8ebf;fontColor=#000000;" parent="1" vertex="1">
                    <mxGeometry x="390" y="360" width="100" height="25" as="geometry"/>
                </mxCell>
                <mxCell id="8" value="'laskdjf'" style="rounded=0;whiteSpace=wrap;html=1;fontSize=15;fillColor=#dae8fc;strokeColor=#6c8ebf;fontColor=#000000;" parent="1" vertex="1">
                    <mxGeometry x="490" y="360" width="100" height="25" as="geometry"/>
                </mxCell>
                <mxCell id="9" value="Route Handler" style="rounded=0;whiteSpace=wrap;html=1;fontSize=18;" parent="1" vertex="1">
                    <mxGeometry x="1130" y="296.25" width="95" height="102.5" as="geometry"/>
                </mxCell>
                <mxCell id="10" style="edgeStyle=orthogonalEdgeStyle;rounded=0;orthogonalLoop=1;jettySize=auto;html=1;exitX=1;exitY=0.5;exitDx=0;exitDy=0;fontSize=18;strokeColor=#5BF000;strokeWidth=3;" parent="1" source="11" target="13" edge="1">
                    <mxGeometry relative="1" as="geometry"/>
                </mxCell>
                <mxCell id="11" value="Middleware to extract the JWT payload and set it on 'req.currentUser'" style="rounded=0;whiteSpace=wrap;html=1;fontSize=18;fillColor=#ffe6cc;strokeColor=#d79b00;fontColor=#000000;" parent="1" vertex="1">
                    <mxGeometry x="640" y="296.25" width="190" height="102.5" as="geometry"/>
                </mxCell>
                <mxCell id="12" style="edgeStyle=orthogonalEdgeStyle;rounded=0;orthogonalLoop=1;jettySize=auto;html=1;exitX=1;exitY=0.5;exitDx=0;exitDy=0;fontSize=18;strokeColor=#5BF000;strokeWidth=3;" parent="1" source="13" target="9" edge="1">
                    <mxGeometry relative="1" as="geometry"/>
                </mxCell>
                <mxCell id="13" value="Middleware to reject the request if the user is not logged in" style="rounded=0;whiteSpace=wrap;html=1;fontSize=18;fillColor=#ffe6cc;strokeColor=#d79b00;fontColor=#000000;" parent="1" vertex="1">
                    <mxGeometry x="890" y="296.25" width="190" height="102.5" as="geometry"/>
                </mxCell>
            </root>
        </mxGraphModel>
    </diagram>
    <diagram id="NJT3ytaRLnl1smbTdy5c" name="auth notes">
        <mxGraphModel dx="1636" dy="1096" grid="1" gridSize="10" guides="1" tooltips="1" connect="1" arrows="1" fold="1" page="1" pageScale="1" pageWidth="850" pageHeight="1100" math="0" shadow="0">
            <root>
                <mxCell id="_dZ9fi2hVIxsYwCd4-Tw-0"/>
                <mxCell id="_dZ9fi2hVIxsYwCd4-Tw-1" parent="_dZ9fi2hVIxsYwCd4-Tw-0"/>
                <mxCell id="2lZj9AaMWbTVCoy1f34p-0" value="" style="rounded=0;whiteSpace=wrap;html=1;fillColor=#f5f5f5;strokeColor=#666666;fontColor=#333333;fontStyle=1;fontSize=19;" parent="_dZ9fi2hVIxsYwCd4-Tw-1" vertex="1">
                    <mxGeometry x="710" y="165" width="280" height="245" as="geometry"/>
                </mxCell>
                <mxCell id="2lZj9AaMWbTVCoy1f34p-1" style="edgeStyle=orthogonalEdgeStyle;rounded=0;orthogonalLoop=1;jettySize=auto;html=1;exitX=1;exitY=0.5;exitDx=0;exitDy=0;fontSize=16;" parent="_dZ9fi2hVIxsYwCd4-Tw-1" source="2lZj9AaMWbTVCoy1f34p-2" target="2lZj9AaMWbTVCoy1f34p-6" edge="1">
                    <mxGeometry relative="1" as="geometry"/>
                </mxCell>
                <mxCell id="2lZj9AaMWbTVCoy1f34p-2" value="{ ticketId: '123123' }" style="rounded=0;whiteSpace=wrap;html=1;fontSize=15;fillColor=#dae8fc;strokeColor=#6c8ebf;fontColor=#000000;" parent="_dZ9fi2hVIxsYwCd4-Tw-1" vertex="1">
                    <mxGeometry x="410" y="172.5" width="230" height="45" as="geometry"/>
                </mxCell>
                <mxCell id="2lZj9AaMWbTVCoy1f34p-3" value="&lt;b&gt;Request to Purchase Ticket&lt;/b&gt;" style="rounded=0;whiteSpace=wrap;html=1;fontSize=15;fillColor=#dae8fc;strokeColor=#6c8ebf;fontColor=#000000;" parent="_dZ9fi2hVIxsYwCd4-Tw-1" vertex="1">
                    <mxGeometry x="410" y="147.5" width="230" height="25" as="geometry"/>
                </mxCell>
                <mxCell id="2lZj9AaMWbTVCoy1f34p-4" value="JWT, Cookie, ETC" style="rounded=0;whiteSpace=wrap;html=1;fontSize=15;fillColor=#dae8fc;strokeColor=#6c8ebf;fontStyle=1;fontColor=#000000;" parent="_dZ9fi2hVIxsYwCd4-Tw-1" vertex="1">
                    <mxGeometry x="410" y="217.5" width="230" height="45" as="geometry"/>
                </mxCell>
                <mxCell id="2lZj9AaMWbTVCoy1f34p-5" value="Orders Service" style="rounded=0;whiteSpace=wrap;html=1;fillColor=#f5f5f5;strokeColor=#666666;fontColor=#333333;fontStyle=1;fontSize=19;" parent="_dZ9fi2hVIxsYwCd4-Tw-1" vertex="1">
                    <mxGeometry x="710" y="130" width="280" height="35" as="geometry"/>
                </mxCell>
                <mxCell id="2lZj9AaMWbTVCoy1f34p-6" value="&lt;b style=&quot;font-size: 16px;&quot;&gt;Ticket Purchase Logic&lt;/b&gt;" style="rounded=0;whiteSpace=wrap;html=1;fontSize=16;" parent="_dZ9fi2hVIxsYwCd4-Tw-1" vertex="1">
                    <mxGeometry x="730" y="180" width="240" height="30" as="geometry"/>
                </mxCell>
                <mxCell id="2lZj9AaMWbTVCoy1f34p-7" value="" style="rounded=0;whiteSpace=wrap;html=1;fontSize=16;" parent="_dZ9fi2hVIxsYwCd4-Tw-1" vertex="1">
                    <mxGeometry x="730" y="210" width="240" height="190" as="geometry"/>
                </mxCell>
                <mxCell id="2lZj9AaMWbTVCoy1f34p-8" style="edgeStyle=orthogonalEdgeStyle;rounded=0;orthogonalLoop=1;jettySize=auto;html=1;exitX=0.5;exitY=1;exitDx=0;exitDy=0;entryX=0.5;entryY=0;entryDx=0;entryDy=0;fontSize=16;" parent="_dZ9fi2hVIxsYwCd4-Tw-1" source="2lZj9AaMWbTVCoy1f34p-9" target="2lZj9AaMWbTVCoy1f34p-11" edge="1">
                    <mxGeometry relative="1" as="geometry"/>
                </mxCell>
                <mxCell id="2lZj9AaMWbTVCoy1f34p-9" value="Is this person logged in?" style="rounded=0;whiteSpace=wrap;html=1;fontSize=16;fillColor=#e1d5e7;strokeColor=#9673a6;fontColor=#000000;" parent="_dZ9fi2hVIxsYwCd4-Tw-1" vertex="1">
                    <mxGeometry x="755" y="222.5" width="190" height="40" as="geometry"/>
                </mxCell>
                <mxCell id="2lZj9AaMWbTVCoy1f34p-10" style="edgeStyle=orthogonalEdgeStyle;rounded=0;orthogonalLoop=1;jettySize=auto;html=1;exitX=0.5;exitY=1;exitDx=0;exitDy=0;fontSize=16;" parent="_dZ9fi2hVIxsYwCd4-Tw-1" source="2lZj9AaMWbTVCoy1f34p-11" target="2lZj9AaMWbTVCoy1f34p-12" edge="1">
                    <mxGeometry relative="1" as="geometry"/>
                </mxCell>
                <mxCell id="2lZj9AaMWbTVCoy1f34p-11" value="Yes? Ok, can they purchase this ticket?" style="rounded=0;whiteSpace=wrap;html=1;fontSize=16;fillColor=#e1d5e7;strokeColor=#9673a6;fontColor=#000000;" parent="_dZ9fi2hVIxsYwCd4-Tw-1" vertex="1">
                    <mxGeometry x="755" y="280" width="190" height="40" as="geometry"/>
                </mxCell>
                <mxCell id="2lZj9AaMWbTVCoy1f34p-12" value="........" style="rounded=0;whiteSpace=wrap;html=1;fontSize=16;fillColor=#e1d5e7;strokeColor=#9673a6;fontColor=#000000;" parent="_dZ9fi2hVIxsYwCd4-Tw-1" vertex="1">
                    <mxGeometry x="755" y="340" width="190" height="40" as="geometry"/>
                </mxCell>
                <mxCell id="2lZj9AaMWbTVCoy1f34p-13" value="Fundamental Option #1" style="text;html=1;strokeColor=none;fillColor=none;align=center;verticalAlign=middle;whiteSpace=wrap;rounded=0;fontSize=24;fontStyle=5;shadow=0;labelBorderColor=none;labelBackgroundColor=none;fontColor=#66B2FF;" parent="_dZ9fi2hVIxsYwCd4-Tw-1" vertex="1">
                    <mxGeometry x="660" y="40" width="380" height="20" as="geometry"/>
                </mxCell>
                <mxCell id="2lZj9AaMWbTVCoy1f34p-14" value="Individual services rely on the auth service" style="text;html=1;strokeColor=none;fillColor=none;align=center;verticalAlign=middle;whiteSpace=wrap;rounded=0;shadow=0;labelBackgroundColor=none;fontSize=18;fontStyle=2;fontColor=#66B2FF;" parent="_dZ9fi2hVIxsYwCd4-Tw-1" vertex="1">
                    <mxGeometry x="735" y="77" width="230" height="20" as="geometry"/>
                </mxCell>
                <mxCell id="2lZj9AaMWbTVCoy1f34p-15" value="Auth Service" style="rounded=0;whiteSpace=wrap;html=1;fillColor=#f5f5f5;strokeColor=#666666;fontColor=#333333;fontStyle=1;fontSize=19;" parent="_dZ9fi2hVIxsYwCd4-Tw-1" vertex="1">
                    <mxGeometry x="1120" y="130" width="190" height="35" as="geometry"/>
                </mxCell>
                <mxCell id="2lZj9AaMWbTVCoy1f34p-16" value="" style="rounded=0;whiteSpace=wrap;html=1;fillColor=#f5f5f5;strokeColor=#666666;fontColor=#333333;fontStyle=1;fontSize=19;" parent="_dZ9fi2hVIxsYwCd4-Tw-1" vertex="1">
                    <mxGeometry x="1120" y="165" width="190" height="175" as="geometry"/>
                </mxCell>
                <mxCell id="2lZj9AaMWbTVCoy1f34p-17" value="Logic to inspect JWT/Cookie and decide if user is authenticated" style="rounded=0;whiteSpace=wrap;html=1;shadow=0;labelBackgroundColor=none;fontSize=18;fillColor=#d5e8d4;strokeColor=#82b366;fontColor=#000000;" parent="_dZ9fi2hVIxsYwCd4-Tw-1" vertex="1">
                    <mxGeometry x="1140" y="180" width="150" height="140" as="geometry"/>
                </mxCell>
                <mxCell id="2lZj9AaMWbTVCoy1f34p-18" style="edgeStyle=orthogonalEdgeStyle;rounded=0;orthogonalLoop=1;jettySize=auto;html=1;exitX=1;exitY=0.5;exitDx=0;exitDy=0;fontSize=18;" parent="_dZ9fi2hVIxsYwCd4-Tw-1" source="2lZj9AaMWbTVCoy1f34p-9" target="2lZj9AaMWbTVCoy1f34p-17" edge="1">
                    <mxGeometry relative="1" as="geometry"/>
                </mxCell>
                <mxCell id="2lZj9AaMWbTVCoy1f34p-19" value="Sync Request" style="rounded=0;whiteSpace=wrap;html=1;shadow=0;labelBackgroundColor=none;fontSize=12;fillColor=#f8cecc;strokeColor=#b85450;fontStyle=2;fontColor=#000000;" parent="_dZ9fi2hVIxsYwCd4-Tw-1" vertex="1">
                    <mxGeometry x="1010" y="253" width="90" height="20" as="geometry"/>
                </mxCell>
                <mxCell id="2lZj9AaMWbTVCoy1f34p-20" value="" style="rounded=0;whiteSpace=wrap;html=1;fillColor=#f5f5f5;strokeColor=#666666;fontColor=#333333;fontStyle=1;fontSize=19;" parent="_dZ9fi2hVIxsYwCd4-Tw-1" vertex="1">
                    <mxGeometry x="1010" y="595" width="280" height="245" as="geometry"/>
                </mxCell>
                <mxCell id="2lZj9AaMWbTVCoy1f34p-21" style="edgeStyle=orthogonalEdgeStyle;rounded=0;orthogonalLoop=1;jettySize=auto;html=1;exitX=1;exitY=0.5;exitDx=0;exitDy=0;entryX=0;entryY=0.25;entryDx=0;entryDy=0;fontSize=21;" parent="_dZ9fi2hVIxsYwCd4-Tw-1" source="2lZj9AaMWbTVCoy1f34p-22" target="2lZj9AaMWbTVCoy1f34p-37" edge="1">
                    <mxGeometry relative="1" as="geometry"/>
                </mxCell>
                <mxCell id="2lZj9AaMWbTVCoy1f34p-22" value="{ ticketId: '123123' }" style="rounded=0;whiteSpace=wrap;html=1;fontSize=15;fillColor=#dae8fc;strokeColor=#6c8ebf;fontColor=#000000;" parent="_dZ9fi2hVIxsYwCd4-Tw-1" vertex="1">
                    <mxGeometry x="440" y="585" width="230" height="45" as="geometry"/>
                </mxCell>
                <mxCell id="2lZj9AaMWbTVCoy1f34p-23" value="&lt;b&gt;Request to Purchase Ticket&lt;/b&gt;" style="rounded=0;whiteSpace=wrap;html=1;fontSize=15;fillColor=#dae8fc;strokeColor=#6c8ebf;fontColor=#000000;" parent="_dZ9fi2hVIxsYwCd4-Tw-1" vertex="1">
                    <mxGeometry x="440" y="560" width="230" height="25" as="geometry"/>
                </mxCell>
                <mxCell id="2lZj9AaMWbTVCoy1f34p-24" value="JWT, Cookie, ETC" style="rounded=0;whiteSpace=wrap;html=1;fontSize=15;fillColor=#dae8fc;strokeColor=#6c8ebf;fontStyle=1;fontColor=#000000;" parent="_dZ9fi2hVIxsYwCd4-Tw-1" vertex="1">
                    <mxGeometry x="440" y="630" width="230" height="45" as="geometry"/>
                </mxCell>
                <mxCell id="2lZj9AaMWbTVCoy1f34p-25" value="Orders Service" style="rounded=0;whiteSpace=wrap;html=1;fillColor=#f5f5f5;strokeColor=#666666;fontColor=#333333;fontStyle=1;fontSize=19;" parent="_dZ9fi2hVIxsYwCd4-Tw-1" vertex="1">
                    <mxGeometry x="1010" y="560" width="280" height="35" as="geometry"/>
                </mxCell>
                <mxCell id="2lZj9AaMWbTVCoy1f34p-26" value="&lt;b style=&quot;font-size: 16px;&quot;&gt;Ticket Purchase Logic&lt;/b&gt;" style="rounded=0;whiteSpace=wrap;html=1;fontSize=16;" parent="_dZ9fi2hVIxsYwCd4-Tw-1" vertex="1">
                    <mxGeometry x="1030" y="610" width="240" height="30" as="geometry"/>
                </mxCell>
                <mxCell id="2lZj9AaMWbTVCoy1f34p-27" value="" style="rounded=0;whiteSpace=wrap;html=1;fontSize=16;" parent="_dZ9fi2hVIxsYwCd4-Tw-1" vertex="1">
                    <mxGeometry x="1030" y="640" width="240" height="190" as="geometry"/>
                </mxCell>
                <mxCell id="2lZj9AaMWbTVCoy1f34p-28" style="edgeStyle=orthogonalEdgeStyle;rounded=0;orthogonalLoop=1;jettySize=auto;html=1;exitX=0.5;exitY=1;exitDx=0;exitDy=0;entryX=0.5;entryY=0;entryDx=0;entryDy=0;fontSize=16;" parent="_dZ9fi2hVIxsYwCd4-Tw-1" source="2lZj9AaMWbTVCoy1f34p-29" target="2lZj9AaMWbTVCoy1f34p-31" edge="1">
                    <mxGeometry relative="1" as="geometry"/>
                </mxCell>
                <mxCell id="2lZj9AaMWbTVCoy1f34p-29" value="Is this person logged in?" style="rounded=0;whiteSpace=wrap;html=1;fontSize=16;fillColor=#e1d5e7;strokeColor=#9673a6;fontColor=#000000;" parent="_dZ9fi2hVIxsYwCd4-Tw-1" vertex="1">
                    <mxGeometry x="1055" y="652.5" width="190" height="40" as="geometry"/>
                </mxCell>
                <mxCell id="2lZj9AaMWbTVCoy1f34p-30" style="edgeStyle=orthogonalEdgeStyle;rounded=0;orthogonalLoop=1;jettySize=auto;html=1;exitX=0.5;exitY=1;exitDx=0;exitDy=0;fontSize=16;" parent="_dZ9fi2hVIxsYwCd4-Tw-1" source="2lZj9AaMWbTVCoy1f34p-31" target="2lZj9AaMWbTVCoy1f34p-32" edge="1">
                    <mxGeometry relative="1" as="geometry"/>
                </mxCell>
                <mxCell id="2lZj9AaMWbTVCoy1f34p-31" value="Yes? Ok, can they purchase this ticket?" style="rounded=0;whiteSpace=wrap;html=1;fontSize=16;fillColor=#e1d5e7;strokeColor=#9673a6;fontColor=#000000;" parent="_dZ9fi2hVIxsYwCd4-Tw-1" vertex="1">
                    <mxGeometry x="1055" y="710" width="190" height="40" as="geometry"/>
                </mxCell>
                <mxCell id="2lZj9AaMWbTVCoy1f34p-32" value="........" style="rounded=0;whiteSpace=wrap;html=1;fontSize=16;fillColor=#e1d5e7;strokeColor=#9673a6;fontColor=#000000;" parent="_dZ9fi2hVIxsYwCd4-Tw-1" vertex="1">
                    <mxGeometry x="1055" y="770" width="190" height="40" as="geometry"/>
                </mxCell>
                <mxCell id="2lZj9AaMWbTVCoy1f34p-33" value="Fundamental Option #1.1" style="text;html=1;strokeColor=none;fillColor=none;align=center;verticalAlign=middle;whiteSpace=wrap;rounded=0;fontSize=24;fontStyle=5;shadow=0;labelBorderColor=none;labelBackgroundColor=none;fontColor=#66B2FF;" parent="_dZ9fi2hVIxsYwCd4-Tw-1" vertex="1">
                    <mxGeometry x="660" y="460" width="380" height="20" as="geometry"/>
                </mxCell>
                <mxCell id="2lZj9AaMWbTVCoy1f34p-34" value="Individual services rely on the auth service as a gateway" style="text;html=1;strokeColor=none;fillColor=none;align=center;verticalAlign=middle;whiteSpace=wrap;rounded=0;shadow=0;labelBackgroundColor=none;fontSize=18;fontStyle=2;fontColor=#66B2FF;" parent="_dZ9fi2hVIxsYwCd4-Tw-1" vertex="1">
                    <mxGeometry x="707.5" y="497" width="285" height="20" as="geometry"/>
                </mxCell>
                <mxCell id="2lZj9AaMWbTVCoy1f34p-35" value="Auth Service" style="rounded=0;whiteSpace=wrap;html=1;fillColor=#f5f5f5;strokeColor=#666666;fontColor=#333333;fontStyle=1;fontSize=19;" parent="_dZ9fi2hVIxsYwCd4-Tw-1" vertex="1">
                    <mxGeometry x="740" y="560" width="190" height="35" as="geometry"/>
                </mxCell>
                <mxCell id="2lZj9AaMWbTVCoy1f34p-36" style="edgeStyle=orthogonalEdgeStyle;rounded=0;orthogonalLoop=1;jettySize=auto;html=1;exitX=1;exitY=0.25;exitDx=0;exitDy=0;entryX=0;entryY=0.25;entryDx=0;entryDy=0;fontSize=21;" parent="_dZ9fi2hVIxsYwCd4-Tw-1" source="2lZj9AaMWbTVCoy1f34p-37" target="2lZj9AaMWbTVCoy1f34p-20" edge="1">
                    <mxGeometry relative="1" as="geometry"/>
                </mxCell>
                <mxCell id="2lZj9AaMWbTVCoy1f34p-37" value="" style="rounded=0;whiteSpace=wrap;html=1;fillColor=#f5f5f5;strokeColor=#666666;fontColor=#333333;fontStyle=1;fontSize=19;" parent="_dZ9fi2hVIxsYwCd4-Tw-1" vertex="1">
                    <mxGeometry x="740" y="595" width="190" height="195" as="geometry"/>
                </mxCell>
                <mxCell id="2lZj9AaMWbTVCoy1f34p-38" value="Logic to inspect JWT/Cookie and decide if user is authenticated, the send request along to intended destination" style="rounded=0;whiteSpace=wrap;html=1;shadow=0;labelBackgroundColor=none;fontSize=18;fillColor=#d5e8d4;strokeColor=#82b366;fontColor=#000000;" parent="_dZ9fi2hVIxsYwCd4-Tw-1" vertex="1">
                    <mxGeometry x="760" y="610" width="150" height="160" as="geometry"/>
                </mxCell>
                <mxCell id="52K8A3sCRR-n4oEcR7Lu-0" value="" style="rounded=0;whiteSpace=wrap;html=1;fillColor=#f5f5f5;strokeColor=#666666;fontColor=#333333;fontStyle=1;fontSize=19;" parent="_dZ9fi2hVIxsYwCd4-Tw-1" vertex="1">
                    <mxGeometry x="730" y="1215" width="460" height="245" as="geometry"/>
                </mxCell>
                <mxCell id="52K8A3sCRR-n4oEcR7Lu-1" style="edgeStyle=orthogonalEdgeStyle;rounded=0;orthogonalLoop=1;jettySize=auto;html=1;exitX=1;exitY=0.5;exitDx=0;exitDy=0;fontSize=16;" parent="_dZ9fi2hVIxsYwCd4-Tw-1" source="52K8A3sCRR-n4oEcR7Lu-2" target="52K8A3sCRR-n4oEcR7Lu-6" edge="1">
                    <mxGeometry relative="1" as="geometry"/>
                </mxCell>
                <mxCell id="52K8A3sCRR-n4oEcR7Lu-2" value="{ ticketId: '123123' }" style="rounded=0;whiteSpace=wrap;html=1;fontSize=15;fillColor=#dae8fc;strokeColor=#6c8ebf;fontColor=#000000;" parent="_dZ9fi2hVIxsYwCd4-Tw-1" vertex="1">
                    <mxGeometry x="430" y="1222.5" width="230" height="45" as="geometry"/>
                </mxCell>
                <mxCell id="52K8A3sCRR-n4oEcR7Lu-3" value="&lt;b&gt;Request to Purchase Ticket&lt;/b&gt;" style="rounded=0;whiteSpace=wrap;html=1;fontSize=15;fillColor=#dae8fc;strokeColor=#6c8ebf;fontColor=#000000;" parent="_dZ9fi2hVIxsYwCd4-Tw-1" vertex="1">
                    <mxGeometry x="430" y="1197.5" width="230" height="25" as="geometry"/>
                </mxCell>
                <mxCell id="52K8A3sCRR-n4oEcR7Lu-4" value="JWT, Cookie, ETC" style="rounded=0;whiteSpace=wrap;html=1;fontSize=15;fillColor=#dae8fc;strokeColor=#6c8ebf;fontStyle=1;fontColor=#000000;" parent="_dZ9fi2hVIxsYwCd4-Tw-1" vertex="1">
                    <mxGeometry x="430" y="1267.5" width="230" height="45" as="geometry"/>
                </mxCell>
                <mxCell id="52K8A3sCRR-n4oEcR7Lu-5" value="Orders Service" style="rounded=0;whiteSpace=wrap;html=1;fillColor=#f5f5f5;strokeColor=#666666;fontColor=#333333;fontStyle=1;fontSize=19;" parent="_dZ9fi2hVIxsYwCd4-Tw-1" vertex="1">
                    <mxGeometry x="730" y="1180" width="460" height="35" as="geometry"/>
                </mxCell>
                <mxCell id="52K8A3sCRR-n4oEcR7Lu-6" value="&lt;b style=&quot;font-size: 16px;&quot;&gt;Ticket Purchase Logic&lt;/b&gt;" style="rounded=0;whiteSpace=wrap;html=1;fontSize=16;" parent="_dZ9fi2hVIxsYwCd4-Tw-1" vertex="1">
                    <mxGeometry x="750" y="1230" width="240" height="30" as="geometry"/>
                </mxCell>
                <mxCell id="52K8A3sCRR-n4oEcR7Lu-7" value="" style="rounded=0;whiteSpace=wrap;html=1;fontSize=16;" parent="_dZ9fi2hVIxsYwCd4-Tw-1" vertex="1">
                    <mxGeometry x="750" y="1260" width="240" height="190" as="geometry"/>
                </mxCell>
                <mxCell id="52K8A3sCRR-n4oEcR7Lu-8" style="edgeStyle=orthogonalEdgeStyle;rounded=0;orthogonalLoop=1;jettySize=auto;html=1;exitX=0.5;exitY=1;exitDx=0;exitDy=0;entryX=0.5;entryY=0;entryDx=0;entryDy=0;fontSize=16;" parent="_dZ9fi2hVIxsYwCd4-Tw-1" source="52K8A3sCRR-n4oEcR7Lu-10" target="52K8A3sCRR-n4oEcR7Lu-12" edge="1">
                    <mxGeometry relative="1" as="geometry"/>
                </mxCell>
                <mxCell id="52K8A3sCRR-n4oEcR7Lu-9" style="edgeStyle=orthogonalEdgeStyle;rounded=0;orthogonalLoop=1;jettySize=auto;html=1;exitX=1;exitY=0.5;exitDx=0;exitDy=0;entryX=0;entryY=0.25;entryDx=0;entryDy=0;fontSize=18;" parent="_dZ9fi2hVIxsYwCd4-Tw-1" source="52K8A3sCRR-n4oEcR7Lu-10" target="52K8A3sCRR-n4oEcR7Lu-15" edge="1">
                    <mxGeometry relative="1" as="geometry"/>
                </mxCell>
                <mxCell id="52K8A3sCRR-n4oEcR7Lu-10" value="Is this person logged in?" style="rounded=0;whiteSpace=wrap;html=1;fontSize=16;fillColor=#e1d5e7;strokeColor=#9673a6;fontColor=#000000;" parent="_dZ9fi2hVIxsYwCd4-Tw-1" vertex="1">
                    <mxGeometry x="775" y="1272.5" width="190" height="40" as="geometry"/>
                </mxCell>
                <mxCell id="52K8A3sCRR-n4oEcR7Lu-11" style="edgeStyle=orthogonalEdgeStyle;rounded=0;orthogonalLoop=1;jettySize=auto;html=1;exitX=0.5;exitY=1;exitDx=0;exitDy=0;fontSize=16;" parent="_dZ9fi2hVIxsYwCd4-Tw-1" source="52K8A3sCRR-n4oEcR7Lu-12" target="52K8A3sCRR-n4oEcR7Lu-13" edge="1">
                    <mxGeometry relative="1" as="geometry"/>
                </mxCell>
                <mxCell id="52K8A3sCRR-n4oEcR7Lu-12" value="Yes? Ok, can they purchase this ticket?" style="rounded=0;whiteSpace=wrap;html=1;fontSize=16;fillColor=#e1d5e7;strokeColor=#9673a6;fontColor=#000000;" parent="_dZ9fi2hVIxsYwCd4-Tw-1" vertex="1">
                    <mxGeometry x="775" y="1330" width="190" height="40" as="geometry"/>
                </mxCell>
                <mxCell id="52K8A3sCRR-n4oEcR7Lu-13" value="........" style="rounded=0;whiteSpace=wrap;html=1;fontSize=16;fillColor=#e1d5e7;strokeColor=#9673a6;fontColor=#000000;" parent="_dZ9fi2hVIxsYwCd4-Tw-1" vertex="1">
                    <mxGeometry x="775" y="1390" width="190" height="40" as="geometry"/>
                </mxCell>
                <mxCell id="52K8A3sCRR-n4oEcR7Lu-14" value="Fundamental Option #2" style="text;html=1;strokeColor=none;fillColor=none;align=center;verticalAlign=middle;whiteSpace=wrap;rounded=0;fontSize=24;fontStyle=5;shadow=0;labelBorderColor=none;labelBackgroundColor=none;fontColor=#66B2FF;" parent="_dZ9fi2hVIxsYwCd4-Tw-1" vertex="1">
                    <mxGeometry x="650" y="1090" width="380" height="20" as="geometry"/>
                </mxCell>
                <mxCell id="52K8A3sCRR-n4oEcR7Lu-15" value="Logic to inspect JWT/Cookie and decide if user is authenticated" style="rounded=0;whiteSpace=wrap;html=1;shadow=0;labelBackgroundColor=none;fontSize=18;fillColor=#d5e8d4;strokeColor=#82b366;fontColor=#000000;" parent="_dZ9fi2hVIxsYwCd4-Tw-1" vertex="1">
                    <mxGeometry x="1030" y="1272.5" width="150" height="140" as="geometry"/>
                </mxCell>
                <mxCell id="52K8A3sCRR-n4oEcR7Lu-16" value="Individual services know how to authenticate a user" style="text;html=1;strokeColor=none;fillColor=none;align=center;verticalAlign=middle;whiteSpace=wrap;rounded=0;shadow=0;labelBackgroundColor=none;fontSize=18;fontStyle=2;fontColor=#66B2FF;" parent="_dZ9fi2hVIxsYwCd4-Tw-1" vertex="1">
                    <mxGeometry x="725" y="1127" width="230" height="20" as="geometry"/>
                </mxCell>
                <mxCell id="6i1W6a-o5HYtPzWTQLFI-0" value="&lt;font style=&quot;font-size: 21px&quot;&gt;Changes to auth state are immediately reflected&lt;/font&gt;" style="rounded=0;whiteSpace=wrap;html=1;shadow=0;labelBackgroundColor=none;fontSize=16;fillColor=#60a917;strokeColor=#2D7600;fontColor=#FFFFFF;" vertex="1" parent="_dZ9fi2hVIxsYwCd4-Tw-1">
                    <mxGeometry x="1440" y="310" width="410" height="100" as="geometry"/>
                </mxCell>
                <mxCell id="6i1W6a-o5HYtPzWTQLFI-1" value="&lt;font style=&quot;font-size: 21px&quot;&gt;Auth service goes down?&amp;nbsp; Entire app is broken&lt;/font&gt;" style="rounded=0;whiteSpace=wrap;html=1;shadow=0;labelBackgroundColor=none;fontSize=16;fillColor=#a20025;strokeColor=#6F0000;fontColor=#FFFFFF;" vertex="1" parent="_dZ9fi2hVIxsYwCd4-Tw-1">
                    <mxGeometry x="1440" y="420" width="410" height="100" as="geometry"/>
                </mxCell>
                <mxCell id="6i1W6a-o5HYtPzWTQLFI-2" value="&lt;font style=&quot;font-size: 21px&quot;&gt;Auth service is down? No prob...&lt;/font&gt;" style="rounded=0;whiteSpace=wrap;html=1;shadow=0;labelBackgroundColor=none;fontSize=16;fillColor=#60a917;strokeColor=#2D7600;fontColor=#ffffff;" vertex="1" parent="_dZ9fi2hVIxsYwCd4-Tw-1">
                    <mxGeometry x="1340" y="1220" width="410" height="100" as="geometry"/>
                </mxCell>
                <mxCell id="6i1W6a-o5HYtPzWTQLFI-3" value="&lt;span style=&quot;font-size: 21px&quot;&gt;If we want to implement something like a banned user... it will make sharing this between services, quite complex&lt;/span&gt;" style="rounded=0;whiteSpace=wrap;html=1;shadow=0;labelBackgroundColor=none;fontSize=16;fillColor=#a20025;strokeColor=#6F0000;fontColor=#ffffff;" vertex="1" parent="_dZ9fi2hVIxsYwCd4-Tw-1">
                    <mxGeometry x="1340" y="1330" width="410" height="100" as="geometry"/>
                </mxCell>
                <mxCell id="6i1W6a-o5HYtPzWTQLFI-19" value="" style="rounded=0;whiteSpace=wrap;html=1;fontColor=#000000;fillColor=#B3B3B3;" vertex="1" parent="_dZ9fi2hVIxsYwCd4-Tw-1">
                    <mxGeometry x="1550" y="1700" width="2080" height="850" as="geometry"/>
                </mxCell>
                <mxCell id="6i1W6a-o5HYtPzWTQLFI-21" value="Auth Service" style="rounded=0;whiteSpace=wrap;html=1;fillColor=#f5f5f5;strokeColor=#666666;fontColor=#333333;fontStyle=1;fontSize=19;" vertex="1" parent="_dZ9fi2hVIxsYwCd4-Tw-1">
                    <mxGeometry x="2185" y="1737.5" width="280" height="35" as="geometry"/>
                </mxCell>
                <mxCell id="6i1W6a-o5HYtPzWTQLFI-22" value="" style="rounded=0;whiteSpace=wrap;html=1;fillColor=#f5f5f5;strokeColor=#666666;fontColor=#333333;fontStyle=1;fontSize=19;" vertex="1" parent="_dZ9fi2hVIxsYwCd4-Tw-1">
                    <mxGeometry x="2185" y="1772.5" width="280" height="215" as="geometry"/>
                </mxCell>
                <mxCell id="6i1W6a-o5HYtPzWTQLFI-23" value="Sign In Logic" style="rounded=0;whiteSpace=wrap;html=1;shadow=0;labelBackgroundColor=none;fontSize=18;fillColor=#d5e8d4;strokeColor=#82b366;fontStyle=1;fontColor=#000000;" vertex="1" parent="_dZ9fi2hVIxsYwCd4-Tw-1">
                    <mxGeometry x="2200" y="1782.5" width="250" height="30" as="geometry"/>
                </mxCell>
                <mxCell id="6i1W6a-o5HYtPzWTQLFI-24" value="{ email: '...', password: '...' }" style="rounded=0;whiteSpace=wrap;html=1;fontSize=15;fillColor=#dae8fc;strokeColor=#6c8ebf;fontColor=#000000;" vertex="1" parent="_dZ9fi2hVIxsYwCd4-Tw-1">
                    <mxGeometry x="1915" y="1801.5" width="230" height="45" as="geometry"/>
                </mxCell>
                <mxCell id="6i1W6a-o5HYtPzWTQLFI-25" value="&lt;b&gt;Request to Sign In&lt;/b&gt;" style="rounded=0;whiteSpace=wrap;html=1;fontSize=15;fillColor=#dae8fc;strokeColor=#6c8ebf;fontColor=#000000;" vertex="1" parent="_dZ9fi2hVIxsYwCd4-Tw-1">
                    <mxGeometry x="1915" y="1776.5" width="230" height="25" as="geometry"/>
                </mxCell>
                <mxCell id="6i1W6a-o5HYtPzWTQLFI-26" value="" style="rounded=0;whiteSpace=wrap;html=1;shadow=0;labelBackgroundColor=none;fontSize=18;fillColor=#d5e8d4;strokeColor=#82b366;fontStyle=1" vertex="1" parent="_dZ9fi2hVIxsYwCd4-Tw-1">
                    <mxGeometry x="2200" y="1812.5" width="250" height="155" as="geometry"/>
                </mxCell>
                <mxCell id="6i1W6a-o5HYtPzWTQLFI-27" style="edgeStyle=orthogonalEdgeStyle;rounded=0;orthogonalLoop=1;jettySize=auto;html=1;exitX=0.5;exitY=1;exitDx=0;exitDy=0;fontSize=12;fillColor=#1ba1e2;strokeColor=#006EAF;" edge="1" source="6i1W6a-o5HYtPzWTQLFI-28" target="6i1W6a-o5HYtPzWTQLFI-29" parent="_dZ9fi2hVIxsYwCd4-Tw-1">
                    <mxGeometry relative="1" as="geometry"/>
                </mxCell>
                <mxCell id="6i1W6a-o5HYtPzWTQLFI-28" value="Email good? Password good?" style="rounded=0;whiteSpace=wrap;html=1;shadow=0;labelBackgroundColor=none;fontSize=12;" vertex="1" parent="_dZ9fi2hVIxsYwCd4-Tw-1">
                    <mxGeometry x="2210" y="1827.5" width="230" height="40" as="geometry"/>
                </mxCell>
                <mxCell id="6i1W6a-o5HYtPzWTQLFI-29" value="Yes? Great. Here's a token to identify you.&amp;nbsp; Include it on all followup requests" style="rounded=0;whiteSpace=wrap;html=1;shadow=0;labelBackgroundColor=none;fontSize=12;" vertex="1" parent="_dZ9fi2hVIxsYwCd4-Tw-1">
                    <mxGeometry x="2210" y="1887.5" width="230" height="40" as="geometry"/>
                </mxCell>
                <mxCell id="6i1W6a-o5HYtPzWTQLFI-30" value="User ABC" style="rounded=0;whiteSpace=wrap;html=1;fontSize=24;fillColor=#ffe6cc;strokeColor=#d79b00;fontColor=#000000;" vertex="1" parent="_dZ9fi2hVIxsYwCd4-Tw-1">
                    <mxGeometry x="1720" y="1782.5" width="140" height="195" as="geometry"/>
                </mxCell>
                <mxCell id="6i1W6a-o5HYtPzWTQLFI-31" value="" style="endArrow=classic;html=1;fontSize=24;strokeColor=#FF9933;" edge="1" parent="_dZ9fi2hVIxsYwCd4-Tw-1">
                    <mxGeometry width="50" height="50" relative="1" as="geometry">
                        <mxPoint x="1860" y="1846.5" as="sourcePoint"/>
                        <mxPoint x="2200" y="1846.5" as="targetPoint"/>
                    </mxGeometry>
                </mxCell>
                <mxCell id="6i1W6a-o5HYtPzWTQLFI-32" value="" style="endArrow=classic;html=1;fontSize=24;fillColor=#d80073;strokeColor=#FF9933;" edge="1" parent="_dZ9fi2hVIxsYwCd4-Tw-1">
                    <mxGeometry width="50" height="50" relative="1" as="geometry">
                        <mxPoint x="2190" y="1907.5" as="sourcePoint"/>
                        <mxPoint x="1850" y="1907.5" as="targetPoint"/>
                    </mxGeometry>
                </mxCell>
                <mxCell id="6i1W6a-o5HYtPzWTQLFI-33" value="JWT, Cookie, Whatever &lt;b&gt;that is only good for 15 minutes&lt;/b&gt;" style="rounded=0;whiteSpace=wrap;html=1;fontSize=15;fillColor=#dae8fc;strokeColor=#6c8ebf;fontColor=#000000;" vertex="1" parent="_dZ9fi2hVIxsYwCd4-Tw-1">
                    <mxGeometry x="1915" y="1907.5" width="230" height="45" as="geometry"/>
                </mxCell>
                <mxCell id="6i1W6a-o5HYtPzWTQLFI-34" value="&lt;font style=&quot;font-size: 35px&quot;&gt;&lt;b&gt;Solution&lt;/b&gt;&lt;/font&gt;" style="rounded=0;whiteSpace=wrap;html=1;fillColor=#1ba1e2;fontColor=#ffffff;align=center;strokeColor=#006EAF;" vertex="1" parent="_dZ9fi2hVIxsYwCd4-Tw-1">
                    <mxGeometry x="1550" y="1640" width="2080" height="60" as="geometry"/>
                </mxCell>
                <mxCell id="6i1W6a-o5HYtPzWTQLFI-36" value="Auth Service" style="rounded=0;whiteSpace=wrap;html=1;fillColor=#f5f5f5;strokeColor=#666666;fontColor=#333333;fontStyle=1;fontSize=19;" vertex="1" parent="_dZ9fi2hVIxsYwCd4-Tw-1">
                    <mxGeometry x="2050" y="2040" width="250" height="35" as="geometry"/>
                </mxCell>
                <mxCell id="6i1W6a-o5HYtPzWTQLFI-37" value="" style="rounded=0;whiteSpace=wrap;html=1;fillColor=#f5f5f5;strokeColor=#666666;fontColor=#333333;fontStyle=1;fontSize=19;" vertex="1" parent="_dZ9fi2hVIxsYwCd4-Tw-1">
                    <mxGeometry x="2050" y="2075" width="250" height="215" as="geometry"/>
                </mxCell>
                <mxCell id="6i1W6a-o5HYtPzWTQLFI-38" value="User Management Logic" style="rounded=0;whiteSpace=wrap;html=1;shadow=0;labelBackgroundColor=none;fontSize=18;fillColor=#d5e8d4;strokeColor=#82b366;fontStyle=1;fontColor=#000000;" vertex="1" parent="_dZ9fi2hVIxsYwCd4-Tw-1">
                    <mxGeometry x="2065" y="2085" width="225" height="30" as="geometry"/>
                </mxCell>
                <mxCell id="6i1W6a-o5HYtPzWTQLFI-39" value="" style="rounded=0;whiteSpace=wrap;html=1;shadow=0;labelBackgroundColor=none;fontSize=18;fillColor=#d5e8d4;strokeColor=#82b366;fontStyle=1" vertex="1" parent="_dZ9fi2hVIxsYwCd4-Tw-1">
                    <mxGeometry x="2065" y="2115" width="225" height="165" as="geometry"/>
                </mxCell>
                <mxCell id="6i1W6a-o5HYtPzWTQLFI-40" style="edgeStyle=orthogonalEdgeStyle;rounded=0;orthogonalLoop=1;jettySize=auto;html=1;exitX=0.5;exitY=1;exitDx=0;exitDy=0;fontSize=22;strokeColor=#FF9933;" edge="1" parent="_dZ9fi2hVIxsYwCd4-Tw-1" source="6i1W6a-o5HYtPzWTQLFI-41" target="6i1W6a-o5HYtPzWTQLFI-50">
                    <mxGeometry relative="1" as="geometry"/>
                </mxCell>
                <mxCell id="6i1W6a-o5HYtPzWTQLFI-41" value="Ban UserABC?&amp;nbsp; OK, I will update the database" style="rounded=0;whiteSpace=wrap;html=1;shadow=0;labelBackgroundColor=none;fontSize=15;" vertex="1" parent="_dZ9fi2hVIxsYwCd4-Tw-1">
                    <mxGeometry x="2096.25" y="2135.75" width="162.5" height="54.25" as="geometry"/>
                </mxCell>
                <mxCell id="6i1W6a-o5HYtPzWTQLFI-42" value="{ id: 'UserABC' }" style="rounded=0;whiteSpace=wrap;html=1;fontSize=15;fillColor=#dae8fc;strokeColor=#6c8ebf;fontColor=#000000;" vertex="1" parent="_dZ9fi2hVIxsYwCd4-Tw-1">
                    <mxGeometry x="1880" y="2124" width="140" height="45" as="geometry"/>
                </mxCell>
                <mxCell id="6i1W6a-o5HYtPzWTQLFI-43" value="&lt;b&gt;Request to BAN a User&lt;/b&gt;" style="rounded=0;whiteSpace=wrap;html=1;fontSize=15;fillColor=#dae8fc;strokeColor=#6c8ebf;fontColor=#000000;" vertex="1" parent="_dZ9fi2hVIxsYwCd4-Tw-1">
                    <mxGeometry x="1880" y="2079" width="140" height="45" as="geometry"/>
                </mxCell>
                <mxCell id="6i1W6a-o5HYtPzWTQLFI-44" value="Auth MongoDB" style="rounded=0;whiteSpace=wrap;html=1;fillColor=#f5f5f5;strokeColor=#666666;fontColor=#333333;fontStyle=1;fontSize=19;" vertex="1" parent="_dZ9fi2hVIxsYwCd4-Tw-1">
                    <mxGeometry x="2360" y="2040" width="280" height="35" as="geometry"/>
                </mxCell>
                <mxCell id="6i1W6a-o5HYtPzWTQLFI-45" value="" style="rounded=0;whiteSpace=wrap;html=1;fillColor=#f5f5f5;strokeColor=#666666;fontColor=#333333;fontStyle=1;fontSize=19;" vertex="1" parent="_dZ9fi2hVIxsYwCd4-Tw-1">
                    <mxGeometry x="2360" y="2075" width="280" height="215" as="geometry"/>
                </mxCell>
                <mxCell id="6i1W6a-o5HYtPzWTQLFI-46" value="{ id: 'UserABC', &lt;b&gt;hasAccess: false&lt;/b&gt; }" style="rounded=0;whiteSpace=wrap;html=1;shadow=0;labelBackgroundColor=none;fontSize=16;" vertex="1" parent="_dZ9fi2hVIxsYwCd4-Tw-1">
                    <mxGeometry x="2375" y="2104" width="250" height="77.5" as="geometry"/>
                </mxCell>
                <mxCell id="6i1W6a-o5HYtPzWTQLFI-47" value="" style="endArrow=classic;html=1;fontSize=16;strokeColor=#FF9933;" edge="1" parent="_dZ9fi2hVIxsYwCd4-Tw-1">
                    <mxGeometry width="50" height="50" relative="1" as="geometry">
                        <mxPoint x="1737.5" y="2170" as="sourcePoint"/>
                        <mxPoint x="2097.5" y="2170" as="targetPoint"/>
                    </mxGeometry>
                </mxCell>
                <mxCell id="6i1W6a-o5HYtPzWTQLFI-48" value="Admin User" style="rounded=0;whiteSpace=wrap;html=1;fontSize=24;fillColor=#ffe6cc;strokeColor=#d79b00;fontColor=#000000;" vertex="1" parent="_dZ9fi2hVIxsYwCd4-Tw-1">
                    <mxGeometry x="1720" y="2079" width="115" height="191" as="geometry"/>
                </mxCell>
                <mxCell id="6i1W6a-o5HYtPzWTQLFI-49" style="edgeStyle=orthogonalEdgeStyle;rounded=0;orthogonalLoop=1;jettySize=auto;html=1;exitX=1;exitY=0.5;exitDx=0;exitDy=0;fontSize=21;strokeColor=#FF9933;" edge="1" parent="_dZ9fi2hVIxsYwCd4-Tw-1" source="6i1W6a-o5HYtPzWTQLFI-41" target="6i1W6a-o5HYtPzWTQLFI-46">
                    <mxGeometry relative="1" as="geometry"/>
                </mxCell>
                <mxCell id="6i1W6a-o5HYtPzWTQLFI-50" value="I will also emit a 'user banned' event" style="rounded=0;whiteSpace=wrap;html=1;shadow=0;labelBackgroundColor=none;fontSize=15;" vertex="1" parent="_dZ9fi2hVIxsYwCd4-Tw-1">
                    <mxGeometry x="2096.25" y="2215.75" width="162.5" height="54.25" as="geometry"/>
                </mxCell>
                <mxCell id="6i1W6a-o5HYtPzWTQLFI-51" value="Orders Service" style="rounded=0;whiteSpace=wrap;html=1;fillColor=#f5f5f5;strokeColor=#666666;fontColor=#333333;fontStyle=1;fontSize=19;" vertex="1" parent="_dZ9fi2hVIxsYwCd4-Tw-1">
                    <mxGeometry x="2360" y="2310" width="280" height="35" as="geometry"/>
                </mxCell>
                <mxCell id="6i1W6a-o5HYtPzWTQLFI-52" value="" style="rounded=0;whiteSpace=wrap;html=1;fillColor=#f5f5f5;strokeColor=#666666;fontColor=#333333;fontStyle=1;fontSize=19;" vertex="1" parent="_dZ9fi2hVIxsYwCd4-Tw-1">
                    <mxGeometry x="2360" y="2345" width="280" height="155" as="geometry"/>
                </mxCell>
                <mxCell id="6i1W6a-o5HYtPzWTQLFI-53" value="Event Bus" style="rounded=0;whiteSpace=wrap;html=1;fillColor=#f5f5f5;strokeColor=#666666;fontColor=#333333;fontStyle=1;fontSize=19;" vertex="1" parent="_dZ9fi2hVIxsYwCd4-Tw-1">
                    <mxGeometry x="2050" y="2465" width="250" height="35" as="geometry"/>
                </mxCell>
                <mxCell id="6i1W6a-o5HYtPzWTQLFI-54" value="" style="rounded=0;whiteSpace=wrap;html=1;fillColor=#f5f5f5;strokeColor=#666666;fontColor=#333333;fontStyle=1;fontSize=19;" vertex="1" parent="_dZ9fi2hVIxsYwCd4-Tw-1">
                    <mxGeometry x="2050" y="2310" width="250" height="155" as="geometry"/>
                </mxCell>
                <mxCell id="6i1W6a-o5HYtPzWTQLFI-55" style="edgeStyle=orthogonalEdgeStyle;rounded=0;orthogonalLoop=1;jettySize=auto;html=1;exitX=1;exitY=0.5;exitDx=0;exitDy=0;fontSize=17;strokeColor=#FF9933;" edge="1" parent="_dZ9fi2hVIxsYwCd4-Tw-1" source="6i1W6a-o5HYtPzWTQLFI-56" target="6i1W6a-o5HYtPzWTQLFI-51">
                    <mxGeometry relative="1" as="geometry"/>
                </mxCell>
                <mxCell id="6i1W6a-o5HYtPzWTQLFI-56" value="UserBanned&lt;br&gt;Event" style="rounded=0;whiteSpace=wrap;html=1;shadow=0;labelBackgroundColor=none;fontSize=20;fillColor=#f8cecc;strokeColor=#b85450;fontStyle=1;fontColor=#000000;" vertex="1" parent="_dZ9fi2hVIxsYwCd4-Tw-1">
                    <mxGeometry x="2093.75" y="2342.5" width="162.5" height="54.25" as="geometry"/>
                </mxCell>
                <mxCell id="6i1W6a-o5HYtPzWTQLFI-57" value="Short-lived in memory cache recording banned users&lt;br&gt;&lt;br&gt;&lt;br&gt;" style="rounded=0;whiteSpace=wrap;html=1;shadow=0;labelBackgroundColor=none;fontSize=16;" vertex="1" parent="_dZ9fi2hVIxsYwCd4-Tw-1">
                    <mxGeometry x="2375" y="2370" width="250" height="100" as="geometry"/>
                </mxCell>
                <mxCell id="6i1W6a-o5HYtPzWTQLFI-58" value="{ id: 'UserAbc' }" style="rounded=0;whiteSpace=wrap;html=1;shadow=0;labelBackgroundColor=none;fontSize=17;fillColor=#f8cecc;strokeColor=#b85450;fontStyle=0;fontColor=#000000;" vertex="1" parent="_dZ9fi2hVIxsYwCd4-Tw-1">
                    <mxGeometry x="2418.75" y="2424" width="162.5" height="35.75" as="geometry"/>
                </mxCell>
                <mxCell id="6i1W6a-o5HYtPzWTQLFI-72" value="" style="endArrow=classic;html=1;fontSize=24;fillColor=#008a00;exitX=1;exitY=0.5;exitDx=0;exitDy=0;entryX=0.5;entryY=0;entryDx=0;entryDy=0;strokeWidth=22;strokeColor=#66FFFF;" edge="1" parent="_dZ9fi2hVIxsYwCd4-Tw-1" source="6i1W6a-o5HYtPzWTQLFI-3" target="6i1W6a-o5HYtPzWTQLFI-34">
                    <mxGeometry width="50" height="50" relative="1" as="geometry">
                        <mxPoint x="1890" y="1370" as="sourcePoint"/>
                        <mxPoint x="2220" y="1470" as="targetPoint"/>
                        <Array as="points"/>
                    </mxGeometry>
                </mxCell>
                <mxCell id="6i1W6a-o5HYtPzWTQLFI-73" value="- If the auth requirements are very strict, and we want the services to be aware immediately about the banned user, we can implement a logic based on the async communication approach.&lt;br&gt;&lt;br&gt;- The short lived CACHE should be used because we don't want to store a list of banned users for eternity. With this approach we could persist the banned user 'ABC' for 15 minutes, which is equal with the JWT life time used for auth. Based on this, the 'ABC' user can't make valid requests even if the JWT is not expired. When the JWT expires, the user will be cleared from cache too." style="rounded=0;whiteSpace=wrap;html=1;fontSize=31;strokeColor=#d79b00;fontColor=#000000;fillColor=#99CCFF;align=left;" vertex="1" parent="_dZ9fi2hVIxsYwCd4-Tw-1">
                    <mxGeometry x="2859" y="1812.5" width="690" height="637.5" as="geometry"/>
                </mxCell>
                <mxCell id="6i1W6a-o5HYtPzWTQLFI-74" value="INFO" style="rounded=0;whiteSpace=wrap;html=1;fillColor=#f5f5f5;strokeColor=#666666;fontColor=#333333;fontStyle=1;fontSize=19;" vertex="1" parent="_dZ9fi2hVIxsYwCd4-Tw-1">
                    <mxGeometry x="3010" y="1811.5" width="380" height="48.5" as="geometry"/>
                </mxCell>
            </root>
        </mxGraphModel>
    </diagram>
</mxfile>